<svg width="32" height="32" viewBox="0 0 32 32" fill="none" xmlns="http://www.w3.org/2000/svg">
  <!-- Background circle with gradient -->
  <defs>
    <linearGradient id="logoGradient" x1="0%" y1="0%" x2="100%" y2="100%">
      <stop offset="0%" stop-color="#60a5fa"/>
      <stop offset="50%" stop-color="#06b6d4"/>
      <stop offset="100%" stop-color="#2dd4bf"/>
    </linearGradient>
  </defs>
  
  <!-- Main background circle -->
  <circle cx="16" cy="16" r="15" fill="url(#logoGradient)" stroke="#1f2937" stroke-width="1"/>
  
  <!-- F letter - stylized and modern -->
  <path d="M10 8h12v3h-9v3h7v3h-7v5h-3V8z" fill="white"/>
  
  <!-- Z letter - stylized and modern -->
  <path d="M12 20h8l-8 4h8v-2l-6-2h6v-2h-8l8-4h-8v2l6 2h-6v2z" fill="white"/>
  
  <!-- Subtle inner glow -->
  <circle cx="16" cy="16" r="12" fill="none" stroke="rgba(255,255,255,0.3)" stroke-width="0.5"/>
  
  <!-- Tech circuit pattern overlay -->
  <path d="M8 12h2v2h-2z M22 12h2v2h-2z M8 18h2v2h-2z M22 18h2v2h-2z" fill="rgba(255,255,255,0.2)"/>
  <path d="M12 8h2v2h-2z M18 8h2v2h-2z M12 22h2v2h-2z M18 22h2v2h-2z" fill="rgba(255,255,255,0.2)"/>
</svg>
